<?xml version="1.0" encoding="utf-8"?>
<!-- Generator: Adobe Illustrator 19.2.1, SVG Export Plug-In . SVG Version: 6.00 Build 0)  -->
<svg version="1.1" id="layer" xmlns="http://www.w3.org/2000/svg" xmlns:xlink="http://www.w3.org/1999/xlink" x="0px" y="0px"
	 viewBox="0 0 652 652" style="enable-background:new 0 0 652 652;" xml:space="preserve">
<style type="text/css">
	.st0{fill:#003D79;}
	.st1{fill:#EF4035;}
	.st2{fill:#AB0534;}
	.st3{fill-rule:evenodd;clip-rule:evenodd;fill:#AB0534;}
</style>
<path class="st0" d="M188,290.5h-2.4v73.1h29.5c4.7,0,8.9-0.4,12.6-1.2c3.7-0.8,7-2.1,9.7-3.7c2.7-1.7,5.2-3.9,7.5-6.8
	c2.3-2.8,4.1-6.4,5.5-10.7c1.4-4.3,2.1-9.2,2.1-14.6c0-6.4-1.1-12.2-3.1-17.2c-2.1-5.1-5.4-9.4-9.6-12.7c-3.3-2.6-7.3-4.4-12-5.4
	c-3.3-0.7-7.8-1-13.9-1 M213.7,303.5c5.6,0,9.6,0.4,12,1.3c3.2,1.1,5.9,3.3,8.2,6.7c2.3,3.4,3.4,8.5,3.4,15c0,4.8-0.6,9-1.8,12.3
	c-1.2,3.2-2.8,5.8-4.8,7.7c-1.4,1.3-3.3,2.3-5.8,3c-2.6,0.8-6.2,1.2-10.9,1.2h-13.5v-47.1H213.7z"/>
<path class="st0" d="M188,361.2v-68.2h25.8c5.8,0,10.3,0.3,13.3,1c4.3,0.9,8,2.5,11,4.9c4,3.1,6.9,6.9,8.9,11.7
	c2,4.7,2.9,10.1,2.9,16.2c0,5.2-0.7,9.8-2,13.8c-1.3,4-3,7.3-5.1,9.9c-2.1,2.6-4.4,4.7-6.8,6.2c-2.5,1.5-5.5,2.7-9,3.4
	c-3.5,0.8-7.5,1.2-12,1.2 M197.9,353.1h16c4.9,0,8.8-0.4,11.6-1.2c2.8-0.8,5.1-2,6.7-3.5c2.4-2.1,4.2-5,5.5-8.6c1.3-3.6,2-8,2-13.1
	c0-7.1-1.3-12.6-3.9-16.4c-2.6-3.8-5.7-6.4-9.4-7.7c-2.7-0.9-6.9-1.4-12.8-1.4h-15.7V353.1z"/>
<polyline class="st0" points="343.4,290.5 295,290.5 295,363.6 347.5,363.6 347.5,350.6 308.9,350.6 308.9,332.3 343.3,332.3 
	343.3,319.3 308.9,319.3 308.9,303.5 345.8,303.5 345.8,290.5 "/>
<polyline class="st0" points="297.5,361.2 297.5,292.9 343.4,292.9 343.4,301 306.5,301 306.5,321.7 340.9,321.7 340.9,329.8 
	306.5,329.8 306.5,353.1 345,353.1 345,361.2 "/>
<polyline class="st0" points="406.7,290.5 395.3,290.5 395.3,363.6 442.7,363.6 442.7,350.6 409.2,350.6 409.2,290.5 "/>
<polyline class="st0" points="397.7,361.2 397.7,292.9 406.7,292.9 406.7,353.1 440.2,353.1 440.2,361.2 "/>
<polyline class="st0" points="524.1,290.5 467.6,290.5 467.6,303.5 490.1,303.5 490.1,363.6 504,363.6 504,303.5 526.5,303.5 
	526.5,290.5 "/>
<polyline class="st0" points="492.6,361.2 492.6,301 470.1,301 470.1,292.9 524.1,292.9 524.1,301 501.6,301 501.6,361.2 "/>
<path class="st0" d="M592.3,290.5h-11.7l-31,73.1h14.8c0,0,6.4-17.9,7.4-20.7h31.3c1,2.7,7.8,20.7,7.8,20.7h15.6L594,290.5
	 M587.3,308.1c1.2,3.5,2.4,7,2.4,7s4.2,11,5.8,15.5h-16.2c1.7-4.6,6.3-16.7,6.3-16.7h0C586.3,312.1,586.7,310.1,587.3,308.1"/>
<path class="st0" d="M553.2,361.2l29.1-68.2h10l30.6,68.2h-10.3l-7.8-20.7h-34.7l-7.4,20.7 M575.8,333.1h23.3l-7.1-18.8
	c-2.1-5.8-3.7-10.5-4.9-14.3c-0.9,4.5-2.2,8.9-3.8,13.2L575.8,333.1z"/>
<polyline class="st1" points="26.5,361.1 80,280.3 80,337.1 "/>
<polyline class="st1" points="80,347.7 80,372.5 26.7,372.5 "/>
<polyline class="st2" points="133.5,361.1 80,280.3 80,337.1 "/>
<polyline class="st2" points="80,347.7 80,372.5 133.3,372.5 "/>
<path class="st3" d="M141.5,361.1c1.8,0,3.2-1.4,3.2-3.2c0-1.8-1.4-3.2-3.2-3.2c-1.8,0-3.2,1.4-3.2,3.2
	C138.3,359.7,139.8,361.1,141.5,361.1 M141.5,360.5c-1.4,0-2.6-1.2-2.6-2.6c0-1.5,1.2-2.6,2.6-2.6c1.5,0,2.6,1.2,2.6,2.6
	C144.1,359.4,143,360.5,141.5,360.5 M142.3,358.2l1-0.9l-0.4-0.9l-0.9-0.1h-1.7v3.4l0.7,0v-1.5h0.7l0.8,1.5l0.8,0L142.3,358.2z
	 M140.9,357.7v-1l0.9,0l0.8,0.4l-0.7,0.5H140.9z"/>
</svg>
