<?xml version="1.0" encoding="utf-8"?>
<!-- Generator: Adobe Illustrator 19.2.1, SVG Export Plug-In . SVG Version: 6.00 Build 0)  -->
<svg version="1.1" id="layer" xmlns="http://www.w3.org/2000/svg" xmlns:xlink="http://www.w3.org/1999/xlink" x="0px" y="0px"
	 viewBox="0 0 652 652" style="enable-background:new 0 0 652 652;" xml:space="preserve">
<style type="text/css">
	.st0{fill:#00A1DF;}
</style>
<path class="st0" d="M316.8,205.7h18.8v-18.8h18.8v-18.8h-18.8v-18.8h-18.8v18.8h-18.7v18.8h18.7V205.7z M438.7,201
	c-18.1,0-32.8,14.7-32.8,32.9c0,18.2,14.7,32.9,32.8,32.9c18.1,0,32.8-14.7,32.8-32.9C471.5,215.7,456.8,201,438.7,201 M213.7,313.8
	h225v-37.6h-225V313.8z M246.5,233.9c0-18.2-14.7-32.9-32.8-32.9c-18.1,0-32.8,14.7-32.8,32.9c0,18.2,14.7,32.9,32.8,32.9
	C231.8,266.8,246.5,252.1,246.5,233.9 M330.9,233.9c0,18.2,14.7,32.9,32.8,32.9c18.1,0,32.8-14.7,32.8-32.9
	c0-18.2-14.7-32.9-32.8-32.9C345.6,201,330.9,215.7,330.9,233.9 M288.7,266.8c18.1,0,32.8-14.7,32.8-32.9
	c0-18.2-14.7-32.9-32.8-32.9s-32.8,14.7-32.8,32.9C255.9,252.1,270.6,266.8,288.7,266.8 M532.4,351.4l-28.1,84.6l-28.1-84.6h-93.8
	v150.3h56.2l0-112.8l37.5,112.8h56.2L570,389v112.8h56.2V351.4H532.4z M270,351.4h-56.3v150.3h150v-37.9H270V351.4z M194.9,351.4
	h-56.2l-56.2,56.4v-56.4H26.2v150.3h56.2v-56.4l56.2,56.4h75l-84.4-84.6L194.9,351.4z"/>
</svg>
