<?xml version="1.0" encoding="utf-8"?>
<!-- Generator: Adobe Illustrator 19.2.1, SVG Export Plug-In . SVG Version: 6.00 Build 0)  -->
<svg version="1.1" id="layer" xmlns="http://www.w3.org/2000/svg" xmlns:xlink="http://www.w3.org/1999/xlink" x="0px" y="0px"
	 viewBox="0 0 652 652" style="enable-background:new 0 0 652 652;" xml:space="preserve">
<style type="text/css">
	.st0{fill:#001E42;}
	.st1{fill-rule:evenodd;clip-rule:evenodd;fill:#001E42;}
</style>
<g>
	<path class="st0" d="M421,378.6L421,378.6L421,378.6c-3-0.3-6-0.5-8.8-0.6c-2.9-0.2-5.8-0.3-8.7-0.6c-2.9,0.3-5.9,0.4-8.7,0.6
		c-2.9,0.1-5.9,0.3-8.8,0.6h-0.4c-3,0-6.2-0.1-6.2-3c0-2.8,1.7-3.7,4.5-4.9c3.2-1.4,3.6-3.7,3.6-11.9v-47.6c0-1.6-0.1-2.9-0.3-3.4
		c-0.5,0.4-1.4,2.3-2.4,4.2l-0.6,1.3l-29.1,60.8c-1.5,3-3.1,4.5-4.8,4.5c-2.1,0-3-1.8-3.7-3.3l-0.1-0.2l-28.6-63
		c-1.5-3.4-2.1-3.8-2.3-3.8c-0.2,0-0.5,0-0.5,2.8v39.2c0,8.2,1.4,16.4,11.9,20.4c2.3,0.9,4.4,2.1,4.4,4.9c0,3-3.2,3-4.6,3
		c-2.6,0-5.2-0.3-7.8-0.6c-2.5-0.3-5.1-0.6-7.6-0.6c-2.5,0-5.1,0.3-7.6,0.6c-2.5,0.3-5.2,0.6-7.8,0.6c-1.4,0-3.7,0-3.7-3
		c0-2.6,1.8-3.5,3.8-4.6l0.5-0.3c7-3.8,9.2-7.6,9.2-16.1v-56c0-5.8-1.8-13.4-6.8-15.9c-0.8-0.4-1.6-0.8-2.3-1.1
		c-3.3-1.5-4.9-2.3-4.9-4.7c0-2.1,0.7-3,2.6-3c2.2,0,4.5,0.2,6.6,0.3c2.2,0.1,4.4,0.3,6.5,0.3s4.4-0.2,6.5-0.3
		c2.2-0.1,4.4-0.3,6.6-0.3c2.9,0,4.3,0.4,5.6,2.9l28.6,60.4c0.8,1.7,1.5,3.1,2,4.2c0.9,1.9,1.6,3.4,1.9,3.9c0.4-0.4,1.2-2,1.9-3.3
		c0.3-0.7,0.7-1.4,1.1-2.1l32.1-62.3c1.6-3.1,2.3-3.8,3.9-3.8c2.2,0,4.5,0.2,6.6,0.3c2.2,0.1,4.4,0.3,6.5,0.3s4.4-0.2,6.5-0.3
		c2.2-0.1,4.4-0.3,6.6-0.3c0.5,0,1,0.2,1.3,0.5c0.5,0.5,0.6,1.3,0.5,2.5c0,2.6-2.5,3.5-6.7,5l-0.8,0.3c-4.9,1.6-7.2,2.8-7.2,11.4
		v52.8c0,12.2,0.6,19.9,11.7,24.2c3,1.2,4.8,2,4.8,4.9C427.5,378.6,424,378.6,421,378.6"/>
	<path class="st0" d="M478.4,379.6c-6.7,0-12.8-1.5-18.8-3c-2.6-0.7-5.4-1.3-8.1-1.9c-0.2,0-0.4-0.1-0.5-0.1c-1.5-0.3-4-0.7-4.8-3.2
		l-5.2-20.4c-0.1-0.4-0.2-0.9-0.4-1.4c-0.3-1.2-0.7-2.5-0.7-3.6c0-0.8,0.3-3.4,4.2-3.4c3.1,0,4.3,3.1,5.2,5.4c0.2,0.5,0.4,1,0.6,1.4
		c4.8,10.2,14.9,21.2,28.8,21.2c10.3,0,17.5-6.5,17.5-15.8c0-9.6-9.9-13.1-21.3-17.1c-14.8-5.3-33.3-11.8-33.3-35.2
		c0-16.5,13.9-29.9,30.9-29.9c7.9,0,14,2.3,18.4,3.9c2.7,1,4.8,1.8,6.5,1.8c0.6,0,1.9-0.6,2.9-1c1.3-0.6,2.4-1,3.3-1
		c3.1,0,3.5,2.1,3.5,3.9c-0.2,5.9,0.9,14.4,1.6,19.4c0.3,2.3,0.5,3.4,0.5,3.9c0,2.7-1.6,4.4-4.1,4.4c-3.3,0-4.2-2.7-5.3-6.2
		l-0.2-0.6c-3.3-10.4-15.4-19.6-26-19.6c-7.8,0-15.6,4.2-15.6,12.3c0,10.1,10,13.5,21.6,17.5c15.5,5.3,33,11.2,33,34.7
		C512.7,362.1,499.6,379.6,478.4,379.6"/>
	<path class="st0" d="M578.9,379.6c-25,0-50.9-18.7-50.9-50.1c0-18.9,5.8-34.1,16.9-44c9.2-8.3,21.9-12.8,35.8-12.8
		c10.8,0,19.8,3.5,25.8,5.9c2.6,1,4.9,1.9,6,1.9c1,0,1.3-0.5,1.9-1.6c0.7-1.3,1.6-3,4.4-3c1.6,0,2.7,1,3,2.6l2.2,20
		c0.1,1.2,0.3,2.4,0.5,3.6c0.3,1.6,0.5,3.1,0.5,4.2c0,2.3-1.1,4.7-3.3,4.7c-2.2,0-3.7-2.9-4.6-4.6c-0.1-0.2-0.2-0.4-0.3-0.5
		c-8.7-15.6-20.3-24.2-32.8-24.2c-20.5,0-30.5,13.5-30.5,41.3c0,23.5,14.5,42.7,32.3,42.7c10.6,0,21.5-5,30.1-13.7
		c0.3-0.3,0.6-0.7,1-1c1.6-1.8,3.7-4,6-4c0.8,0,2.7,0.3,2.7,3.2C625.8,355,610,379.6,578.9,379.6"/>
	<path class="st0" d="M124.3,278.4c1-0.6,1.4-1.9,0.8-2.9c-0.6-1-1.9-1.4-2.9-0.8c-1,0.6-1.4,1.9-0.8,2.9
		C122,278.6,123.3,279,124.3,278.4 M181.4,274.6c-1-0.6-2.3-0.2-2.9,0.8c-0.6,1-0.2,2.3,0.8,2.9c1,0.6,2.3,0.2,2.9-0.8
		C182.8,276.5,182.5,275.2,181.4,274.6 M122.1,377.5c1,0.6,2.3,0.2,2.9-0.8c0.6-1,0.2-2.3-0.8-2.9c-1-0.6-2.3-0.2-2.9,0.8
		C120.7,375.6,121.1,376.9,122.1,377.5 M92.4,325.8c0,1.2,1,2.1,2.1,2.1c1.2,0,2.1-1,2.1-2.1c0-1.2-1-2.2-2.1-2.2
		C93.3,323.7,92.4,324.6,92.4,325.8 M179.3,373.8c-1,0.6-1.4,1.9-0.8,2.9c0.6,1,1.9,1.4,2.9,0.8c1-0.6,1.4-1.9,0.8-2.9
		C181.7,373.6,180.4,373.2,179.3,373.8 M214.5,343l63.1-16.9l-63.1-16.9l25.7-34.4l-42.6,5.2l5.2-42.8L168.6,263l-16.8-63.3
		l-16.8,63.3l-34.3-25.8l5.2,42.7l-42.6-5.2l25.8,34.4l-63.1,16.9L88.9,343l-25.8,34.4l42.6-5.2l-5.2,42.8l34.3-25.8l16.8,63.3
		l16.8-63.3l34.3,25.9l-5.1-42.8l42.6,5.2L214.5,343z M253.9,326.1c0,0-37.2,0-37.2,0c0-3.4-0.3-6.8-0.8-10.1L253.9,326.1z
		 M49.5,326.1c0,0,37.2,0,37.2,0c0,3.4,0.3,6.8,0.8,10.1L49.5,326.1z M195.7,249.8l-11.5,19.8c-3.1-1.8-5.8-3.1-9.1-4.4L195.7,249.8
		z M183.3,278.2c-0.9,1.6-3,2.2-4.7,1.3c-1.6-0.9-2.2-3-1.2-4.7c0.9-1.6,3-2.2,4.7-1.3C183.7,274.5,184.3,276.6,183.3,278.2
		 M151.7,223.6v37.3c-5.6,0-10.1,0.8-10.1,0.8L151.7,223.6z M121.5,273.5c1.6-0.9,3.7-0.4,4.7,1.3c0.9,1.6,0.4,3.7-1.3,4.7
		c-1.6,1-3.7,0.4-4.7-1.2C119.3,276.6,119.9,274.5,121.5,273.5 M119.2,269.6c-3.1,1.8-5.6,3.5-8.3,5.7l-3.1-25.5L119.2,269.6z
		 M97.9,325.8c0,1.9-1.5,3.4-3.4,3.4s-3.4-1.5-3.4-3.4c0-1.9,1.5-3.4,3.4-3.4S97.9,323.9,97.9,325.8 M75.7,282l19.7,11.5
		c-1.8,3.1-3.1,5.9-4.3,9.1L75.7,282z M75.7,370.2l19.7-11.5c1.8,3.1,3.5,5.6,5.7,8.3L75.7,370.2z M107.8,402.5l11.5-19.9
		c3,1.8,5.8,3.1,9.1,4.4L107.8,402.5z M120.2,373.9c0.9-1.7,3-2.2,4.7-1.3c1.6,0.9,2.2,3.1,1.2,4.7c-0.9,1.6-3,2.2-4.7,1.3
		C119.8,377.7,119.3,375.6,120.2,373.9 M151.7,428.6c0,0,0-37.3,0-37.3c3.4,0,6.8-0.3,10.1-0.8L151.7,428.6z M182.1,378.7
		c-1.6,0.9-3.7,0.4-4.7-1.3c-1-1.6-0.4-3.8,1.2-4.7c1.6-0.9,3.7-0.4,4.7,1.3C184.3,375.6,183.7,377.7,182.1,378.7 M184.2,382.6
		c3.1-1.8,5.6-3.5,8.3-5.7l3.1,25.6L184.2,382.6z M151.7,375.7c-27.3,0-49.4-22.2-49.4-49.6s22.1-49.6,49.4-49.6
		s49.4,22.2,49.4,49.6S179,375.7,151.7,375.7 M227.8,282L208,293.5c-1.8-3.1-3.5-5.6-5.7-8.3L227.8,282z M205.5,326
		c0-1.9,1.5-3.4,3.4-3.4c1.9,0,3.4,1.5,3.4,3.4c0,1.9-1.5,3.4-3.4,3.4C207,329.5,205.5,327.9,205.5,326 M212.4,349.6l15.4,20.6
		L208,358.7C209.8,355.6,211.1,352.8,212.4,349.6 M211,326c0-1.2-1-2.2-2.2-2.2c-1.2,0-2.1,1-2.1,2.2c0,1.2,1,2.2,2.1,2.2
		C210.1,328.2,211,327.2,211,326"/>
	<path class="st1" d="M132.8,353.7c0,1,0.6,1.8,1.5,2.2c1.5,0.6,3.1,0.6,4.6,0c0.9-0.4,1.5-1.2,1.5-2.2c0-0.9-0.6-1.7-1.4-2.1
		c-0.7-0.3-1.4-0.6-2.1-0.7c-0.9-0.2-1.8-0.4-2.8-0.6c-0.5-0.1-1-0.2-1.5-0.2c-2.7-0.4-5.3-1.5-7.4-3.3c-0.5-0.6-0.9-1.3-1.2-2
		c-1.9-4.2,0-9.2,4.2-11.1c5.1-2.3,11-2.4,16.2-0.2c3.1,1.1,5.2,4,5.3,7.3h-8.9c-0.3-1.3-1.3-2.3-2.6-2.5c-1.2-0.3-2.4-0.2-3.4,0.3
		c-1.2,0.5-1.8,1.9-1.4,3.1c0.7,1.2,1.8,1.9,3.1,2.1c2.5,0.3,5,0.9,7.4,1.7c1,0.2,2,0.6,2.8,1.2c0.8,0.6,1.5,1.4,2,2.3
		c2.4,3.9,1.1,9.1-2.8,11.4c-4.8,2.4-10.3,2.9-15.4,1.3c-3.9-0.7-6.7-4.1-6.7-8.1H132.8z M179.6,344.1c-0.1-4-2.2-7.6-5.5-9.7
		c-4.9-3.5-11.5-3.1-15.9,0.8c-2.7,2.4-4.3,5.7-4.5,9.3c-0.5,3.6-0.1,7.2,1.2,10.6c1.5,3.2,4.1,5.6,7.4,6.7c3.2,1.2,6.7,1,9.8-0.6
		c4.3-2,7.1-6.2,7.5-10.9h-8.2c-0.5,1.7-1.5,3.1-2.6,3.8c-2.6,1.7-5.7,0-6.9-3.8c-1.2-3.9,0-8.4,2.6-10.1c2.6-1.7,5.7,0,6.9,3.9
		H179.6z M167.6,323.7v-19c-0.2-2.6-2.5-4.5-5.1-4.3c-2.3,0.2-4.2,2.2-4.3,4.5v21.4C161.3,325.2,164.4,324.3,167.6,323.7
		 M145.2,326.2V305c0-2.6-2.2-4.7-4.8-4.7c-2.3,0-4.2,1.7-4.6,3.9v19.6C139,324.3,142.2,325,145.2,326.2 M191.6,329.3
		c-3.7,2.1-8.2,2.3-12.2,0.6c-6-2.4-12.6-2.4-18.6,0c-2.9,1.2-6,1.7-9.1,1.7c-3.1,0-6.2-0.5-9.1-1.7c-6-2.4-12.6-2.4-18.6,0
		c-3.9,1.7-8.4,1.5-12.2-0.6l2.1-3.6c2.6,1.4,5.7,1.6,8.4,0.4v-35.5h13.3v3.4c0.4-0.5,0.9-0.9,1.4-1.3c5.9-4.8,14.5-4,19.3,1.9
		c2.5-3,6.1-4.8,10-5c7.7-0.4,14.3,5.6,14.7,13.3V326c2.7,1.2,5.8,1,8.4-0.4L191.6,329.3z"/>
</g>
</svg>
